<svg width="90" height="78" viewBox="0 0 90 78" fill="none" xmlns="http://www.w3.org/2000/svg">
<path fill-rule="evenodd" clip-rule="evenodd" d="M7.153 70.863H83.12V24.287H7.153V70.863Z" fill="#F0F1F1"/>
<path fill-rule="evenodd" clip-rule="evenodd" d="M75.551 69.927H10.246C9.566 69.927 8.809 69.847 8.09 69.861V25.2219H80.026C80.706 25.2219 81.464 25.3019 82.183 25.2879V69.927H75.55H75.551ZM83.12 23.3509H16.504C13.443 23.3509 10.348 23.2199 7.289 23.3509C7.244 23.3529 7.199 23.3509 7.153 23.3509C6.647 23.3509 6.217 23.7799 6.217 24.2869V70.8629C6.217 71.368 6.647 71.7979 7.153 71.7979H73.769C76.83 71.7979 79.924 71.9289 82.984 71.7979C83.029 71.7959 83.074 71.7979 83.12 71.7979C83.394 71.7979 83.603 71.6979 83.752 71.5479L83.784 71.5179L83.801 71.5C83.954 71.3499 84.055 71.1399 84.055 70.8629V24.2869C84.055 23.7809 83.627 23.3509 83.12 23.3509Z" fill="#292C6A"/>
<mask id="mask0_0_93" style="mask-type:alpha" maskUnits="userSpaceOnUse" x="0" y="0" width="90" height="78">
<path d="M0.486 77.831H89.853V0.296997H0.486V77.831Z" fill="white"/>
</mask>
<g mask="url(#mask0_0_93)">
<path fill-rule="evenodd" clip-rule="evenodd" d="M1.331 75.9291H88.827V70.8621H1.331V75.9291Z" fill="#F0F1F1"/>
<path fill-rule="evenodd" clip-rule="evenodd" d="M80.221 75.897H4.999C4.159 75.897 3.233 75.802 2.357 75.831V71.797H85.339C86.179 71.797 87.105 71.893 87.982 71.863V75.896H80.221V75.897ZM88.917 69.927H12.206C8.672 69.927 5.106 69.786 1.573 69.927C1.523 69.929 1.472 69.927 1.421 69.927C0.916 69.927 0.486 70.355 0.486 70.862V76.833C0.486 77.338 0.915 77.768 1.421 77.768H78.132C81.667 77.768 85.233 77.909 88.766 77.768C88.816 77.766 88.866 77.768 88.917 77.768C89.423 77.768 89.853 77.34 89.853 76.833V70.862C89.853 70.357 89.424 69.927 88.917 69.927Z" fill="#292C6A"/>
<path fill-rule="evenodd" clip-rule="evenodd" d="M58.661 70.862H76.104V40.004H58.661V70.862Z" fill="#39C0C4"/>
<path fill-rule="evenodd" clip-rule="evenodd" d="M60.848 69.927H59.597V40.939H75.169V69.927H60.849H60.848ZM76.104 39.068H58.661C58.156 39.068 57.726 39.497 57.726 40.004V70.863C57.726 71.368 58.154 71.798 58.661 71.798H76.104C76.379 71.798 76.587 71.698 76.737 71.548L76.768 71.518L76.786 71.499C76.938 71.349 77.04 71.139 77.04 70.863V40.003C77.04 39.498 76.61 39.068 76.104 39.068Z" fill="#292C6A"/>
<path fill-rule="evenodd" clip-rule="evenodd" d="M15.361 54.505H49.994V40.004H15.361V54.505Z" fill="#D4DAE0"/>
<path fill-rule="evenodd" clip-rule="evenodd" d="M38.285 53.569H16.296V40.939H49.058V53.569H38.285ZM50.929 40.004C50.929 39.498 50.5 39.068 49.994 39.068H15.361C14.855 39.068 14.425 39.497 14.425 40.004V54.505C14.425 55.011 14.854 55.441 15.36 55.441H49.993C50.268 55.441 50.477 55.341 50.626 55.191L50.658 55.161L50.675 55.142C50.828 54.992 50.929 54.782 50.929 54.505V40.004Z" fill="#292C6A"/>
<path fill-rule="evenodd" clip-rule="evenodd" d="M13.568 24.5271L17.403 1.23206H27.413L26.106 24.5271C26.106 24.5271 25.731 30.7961 19.836 30.7961C13.943 30.7961 13.569 24.5271 13.569 24.5271H13.568ZM38.641 24.5271V1.23206H51.177V24.5271C51.177 24.5271 50.989 30.7961 44.908 30.7961C38.828 30.7961 38.641 24.5271 38.641 24.5271ZM63.714 24.5271L63.339 1.23206H73.723L76.25 24.5271C76.25 24.5271 75.968 29.8601 70.73 30.7021C65.49 31.5441 63.84 26.7821 63.714 24.5271Z" fill="#F0F1F1"/>
<path fill-rule="evenodd" clip-rule="evenodd" d="M88.786 24.5271L83.922 1.23206H73.723L76.25 24.5271C76.25 24.5271 76.25 30.7961 82.518 30.7961C88.786 30.7961 88.786 24.5271 88.786 24.5271ZM27.414 1.23206H38.641V24.5281C38.641 24.5281 37.988 30.7021 32.373 30.7961C26.759 30.8891 26.105 24.5281 26.105 24.5281L27.414 1.23206ZM51.176 1.23206L51.177 24.5281C51.177 24.5281 51.459 30.8891 57.446 30.7961C63.432 30.7021 63.714 24.5281 63.714 24.5281L63.339 1.23206H51.176ZM17.403 1.23206L15.753 11.2561C15.057 15.4881 14.328 19.7161 13.663 23.9541C13.407 25.5811 13.101 27.0601 12.077 28.4241C10.932 29.9501 9.189 30.7341 7.3 30.7961C1.499 30.9831 1.483 24.3401 1.483 24.3401L7.673 1.23206H17.403Z" fill="#39C0C4"/>
<path fill-rule="evenodd" clip-rule="evenodd" d="M87.326 26.911C86.616 28.573 85.181 29.607 83.386 29.816C81.382 30.05 79.251 29.496 78.132 27.709C77.539 26.761 77.262 25.574 77.192 24.694L77.177 24.519C77.19 23.464 77.041 22.369 76.883 21.289C76.463 17.056 75.916 12.827 75.458 8.603L74.76 2.168H83.162L87.282 21.892L87.849 24.605C87.835 25.335 87.675 26.093 87.326 26.911ZM75.261 24.93C74.983 26.295 74.426 27.59 73.362 28.531C71.676 30.021 68.719 30.419 66.867 29.019C65.52 28.001 64.76 26.181 64.649 24.527L64.638 23.787V23.785L64.533 17.283L64.527 16.914C64.447 12.001 64.441 7.08 64.295 2.168H72.889L74.458 16.63L74.809 19.867C74.982 21.461 75.138 23.058 75.309 24.652C75.312 24.843 75.327 24.604 75.261 24.93ZM62.699 25.122C62.654 25.338 62.608 25.552 62.55 25.765C62.399 26.322 62.193 26.855 61.906 27.357C61.19 28.611 60.051 29.443 58.633 29.739C55.545 30.384 53.08 28.683 52.323 25.729C52.167 25.124 52.122 24.921 52.113 24.503V24.395C52.177 23.285 52.113 22.159 52.113 21.061V9.467V2.167H62.418L62.604 13.719L62.734 21.785V21.786L62.777 24.465C62.771 24.582 62.763 24.698 62.752 24.815V24.817L62.745 24.853C62.731 24.943 62.717 25.033 62.699 25.121V25.122ZM50.235 24.653C50.232 24.713 50.224 24.773 50.218 24.833L50.208 24.955C50.208 24.945 50.208 24.926 50.197 24.999C50.099 25.595 49.95 26.195 49.719 26.754C49.062 28.341 47.785 29.454 46.079 29.766C43.839 30.174 41.546 29.422 40.409 27.386C40.059 26.763 39.837 26.082 39.693 25.384C39.601 24.94 39.593 24.985 39.577 24.526V16.827C39.577 11.943 39.66 7.051 39.585 2.167H50.241V18.379L50.242 22.607C50.242 23.154 50.232 23.69 50.249 24.225C50.246 24.324 50.246 24.423 50.242 24.522L50.235 24.654V24.653ZM33.3 29.777C30.264 30.33 28.066 28.351 27.276 25.571C27.182 25.238 27.105 24.899 27.048 24.558C27.192 23.296 27.183 21.998 27.253 20.75C27.348 19.048 27.443 17.347 27.54 15.645L28.297 2.169H37.706V24.526L37.693 24.583C37.186 26.977 35.925 29.299 33.3 29.776V29.777ZM25.167 24.562C25.161 24.645 25.16 24.679 25.16 24.693C25.158 24.695 25.154 24.712 25.142 24.782C25.045 25.357 24.906 25.926 24.698 26.472C24.093 28.065 22.905 29.312 21.216 29.713C19.018 30.235 16.679 29.497 15.492 27.53C15.092 26.865 14.825 26.143 14.651 25.39C14.599 25.168 14.559 24.945 14.524 24.72C14.521 24.69 14.511 24.615 14.507 24.558L17.039 9.174C17.424 6.839 17.809 4.504 18.192 2.168H26.426L25.74 14.363L25.567 17.453L25.535 18.015L25.471 19.149L25.289 22.406C25.259 22.916 25.217 23.408 25.205 23.897L25.171 24.497L25.167 24.562ZM12.451 25.332C12.048 26.994 11.186 28.494 9.616 29.29C8.39 29.91 6.831 30.064 5.518 29.633C3.818 29.077 2.962 27.43 2.6 25.786C2.476 25.228 2.522 24.983 2.422 24.448L2.466 24.286C2.77 23.235 3.033 22.17 3.316 21.113L6.387 9.65L8.392 2.167H16.306L15.068 9.687C14.876 10.852 14.685 12.017 14.49 13.183C14.138 15.298 13.782 17.413 13.434 19.53C13.362 19.962 13.297 20.398 13.234 20.834C13.204 21.011 13.174 21.189 13.146 21.366L12.691 24.126C12.647 24.236 12.626 24.364 12.633 24.511C12.577 24.785 12.517 25.059 12.451 25.331V25.332ZM89.686 24.264L85.426 3.867L84.822 0.983997C84.739 0.584997 84.312 0.296997 83.92 0.296997H7.674C7.265 0.296997 6.878 0.586997 6.771 0.983997L1.476 20.747C1.193 21.805 0.869002 22.86 0.626002 23.927C0.437002 24.747 0.646002 25.668 0.839002 26.471C1.307 28.403 2.417 30.271 4.272 31.139C7.01 32.422 10.619 31.612 12.563 29.309C12.957 28.842 13.27 28.343 13.525 27.821C14.387 29.541 15.836 30.936 17.752 31.463C20.046 32.095 22.689 31.663 24.491 30.068C25.193 29.447 25.741 28.662 26.151 27.809C27.055 29.597 28.533 31.064 30.565 31.539C33.873 32.312 37.015 30.751 38.545 27.845C39.357 29.485 40.725 30.821 42.523 31.39C44.797 32.108 47.561 31.766 49.435 30.244C50.181 29.638 50.762 28.858 51.193 28C52.101 29.77 53.631 31.16 55.693 31.57C59.009 32.227 62.185 30.851 63.707 27.924C64.963 30.376 67.381 32.034 70.458 31.676C72.805 31.403 74.965 30.001 76.174 28.008C76.406 28.482 76.684 28.934 77.02 29.35C78.495 31.175 80.863 31.874 83.148 31.707C86.97 31.428 89.705 28.337 89.723 24.527C89.723 24.43 89.708 24.344 89.687 24.263" fill="#292C6A"/>
</g>
</svg>
